<mxfile host="app.diagrams.net" modified="2023-04-20T09:01:00.850Z" agent="5.0 (Windows NT 10.0; Win64; x64) AppleWebKit/537.36 (KHTML, like Gecko) Chrome/112.0.0.0 Safari/537.36" etag="MV8Bai0nYivoZcK2jkJv" version="20.8.13" type="github">
  <diagram name="Page-1" id="lykmxIXzi3GVXtTds80J">
    <mxGraphModel dx="1434" dy="774" grid="1" gridSize="10" guides="1" tooltips="1" connect="1" arrows="1" fold="1" page="1" pageScale="1" pageWidth="827" pageHeight="1169" math="0" shadow="0">
      <root>
        <mxCell id="0" />
        <mxCell id="1" parent="0" />
        <mxCell id="E4YwK7CUom6d1HkRE5xG-3" style="edgeStyle=orthogonalEdgeStyle;rounded=0;orthogonalLoop=1;jettySize=auto;html=1;exitX=0.476;exitY=1.033;exitDx=0;exitDy=0;exitPerimeter=0;" edge="1" parent="1" source="E4YwK7CUom6d1HkRE5xG-1" target="E4YwK7CUom6d1HkRE5xG-2">
          <mxGeometry relative="1" as="geometry" />
        </mxCell>
        <mxCell id="E4YwK7CUom6d1HkRE5xG-1" value="trascrizione completa" style="html=1;verticalLabelPosition=top;align=center;labelBackgroundColor=#ffffff;verticalAlign=bottom;strokeWidth=2;strokeColor=#0080F0;shadow=0;dashed=0;shape=mxgraph.ios7.icons.document;labelPosition=center;" vertex="1" parent="1">
          <mxGeometry x="403" y="50" width="21" height="30" as="geometry" />
        </mxCell>
        <mxCell id="E4YwK7CUom6d1HkRE5xG-11" style="edgeStyle=orthogonalEdgeStyle;rounded=0;orthogonalLoop=1;jettySize=auto;html=1;" edge="1" parent="1" source="E4YwK7CUom6d1HkRE5xG-2" target="E4YwK7CUom6d1HkRE5xG-10">
          <mxGeometry relative="1" as="geometry" />
        </mxCell>
        <mxCell id="E4YwK7CUom6d1HkRE5xG-2" value="split S1" style="html=1;verticalLabelPosition=bottom;align=center;labelBackgroundColor=#ffffff;verticalAlign=top;strokeWidth=2;strokeColor=#0080F0;shadow=0;dashed=0;shape=mxgraph.ios7.icons.document;" vertex="1" parent="1">
          <mxGeometry x="470" y="140" width="21" height="30" as="geometry" />
        </mxCell>
        <mxCell id="E4YwK7CUom6d1HkRE5xG-4" style="edgeStyle=orthogonalEdgeStyle;rounded=0;orthogonalLoop=1;jettySize=auto;html=1;exitX=0.476;exitY=1;exitDx=0;exitDy=0;exitPerimeter=0;" edge="1" parent="1" target="E4YwK7CUom6d1HkRE5xG-5" source="E4YwK7CUom6d1HkRE5xG-1">
          <mxGeometry relative="1" as="geometry">
            <mxPoint x="360" y="65" as="sourcePoint" />
          </mxGeometry>
        </mxCell>
        <mxCell id="E4YwK7CUom6d1HkRE5xG-8" style="edgeStyle=orthogonalEdgeStyle;rounded=0;orthogonalLoop=1;jettySize=auto;html=1;" edge="1" parent="1" source="E4YwK7CUom6d1HkRE5xG-5" target="E4YwK7CUom6d1HkRE5xG-7">
          <mxGeometry relative="1" as="geometry" />
        </mxCell>
        <mxCell id="E4YwK7CUom6d1HkRE5xG-5" value="split S0" style="html=1;verticalLabelPosition=bottom;align=center;labelBackgroundColor=#ffffff;verticalAlign=top;strokeWidth=2;strokeColor=#0080F0;shadow=0;dashed=0;shape=mxgraph.ios7.icons.document;" vertex="1" parent="1">
          <mxGeometry x="340" y="140" width="21" height="30" as="geometry" />
        </mxCell>
        <mxCell id="E4YwK7CUom6d1HkRE5xG-31" style="edgeStyle=orthogonalEdgeStyle;rounded=0;orthogonalLoop=1;jettySize=auto;html=1;entryX=0.5;entryY=0;entryDx=0;entryDy=0;" edge="1" parent="1" source="E4YwK7CUom6d1HkRE5xG-7" target="E4YwK7CUom6d1HkRE5xG-30">
          <mxGeometry relative="1" as="geometry" />
        </mxCell>
        <mxCell id="E4YwK7CUom6d1HkRE5xG-7" value="Module identificatore" style="sketch=0;outlineConnect=0;fontColor=#232F3E;gradientColor=none;fillColor=#067F68;strokeColor=none;dashed=0;verticalLabelPosition=bottom;verticalAlign=top;align=center;html=1;fontSize=12;fontStyle=0;aspect=fixed;pointerEvents=1;shape=mxgraph.aws4.sagemaker_model;" vertex="1" parent="1">
          <mxGeometry x="220" y="252" width="78" height="78" as="geometry" />
        </mxCell>
        <mxCell id="E4YwK7CUom6d1HkRE5xG-34" style="edgeStyle=orthogonalEdgeStyle;rounded=0;orthogonalLoop=1;jettySize=auto;html=1;entryX=0.5;entryY=0;entryDx=0;entryDy=0;" edge="1" parent="1" source="E4YwK7CUom6d1HkRE5xG-10" target="E4YwK7CUom6d1HkRE5xG-33">
          <mxGeometry relative="1" as="geometry" />
        </mxCell>
        <mxCell id="E4YwK7CUom6d1HkRE5xG-10" value="Module identificatore" style="sketch=0;outlineConnect=0;fontColor=#232F3E;gradientColor=none;fillColor=#067F68;strokeColor=none;dashed=0;verticalLabelPosition=bottom;verticalAlign=top;align=center;html=1;fontSize=12;fontStyle=0;aspect=fixed;pointerEvents=1;shape=mxgraph.aws4.sagemaker_model;" vertex="1" parent="1">
          <mxGeometry x="540" y="252" width="78" height="78" as="geometry" />
        </mxCell>
        <mxCell id="E4YwK7CUom6d1HkRE5xG-16" value="" style="edgeStyle=orthogonalEdgeStyle;rounded=0;orthogonalLoop=1;jettySize=auto;html=1;" edge="1" parent="1" source="E4YwK7CUom6d1HkRE5xG-13" target="E4YwK7CUom6d1HkRE5xG-15">
          <mxGeometry relative="1" as="geometry" />
        </mxCell>
        <mxCell id="E4YwK7CUom6d1HkRE5xG-27" value="" style="edgeStyle=orthogonalEdgeStyle;rounded=0;orthogonalLoop=1;jettySize=auto;html=1;" edge="1" parent="1" source="E4YwK7CUom6d1HkRE5xG-13" target="E4YwK7CUom6d1HkRE5xG-18">
          <mxGeometry relative="1" as="geometry" />
        </mxCell>
        <mxCell id="E4YwK7CUom6d1HkRE5xG-13" value="probabilità pari?" style="rhombus;whiteSpace=wrap;html=1;" vertex="1" parent="1">
          <mxGeometry x="219" y="517" width="80" height="80" as="geometry" />
        </mxCell>
        <mxCell id="E4YwK7CUom6d1HkRE5xG-48" style="edgeStyle=orthogonalEdgeStyle;rounded=0;orthogonalLoop=1;jettySize=auto;html=1;entryX=0.5;entryY=0;entryDx=0;entryDy=0;exitX=1.05;exitY=0.433;exitDx=0;exitDy=0;exitPerimeter=0;" edge="1" parent="1" source="E4YwK7CUom6d1HkRE5xG-15" target="E4YwK7CUom6d1HkRE5xG-47">
          <mxGeometry relative="1" as="geometry">
            <Array as="points">
              <mxPoint x="414" y="635" />
            </Array>
          </mxGeometry>
        </mxCell>
        <mxCell id="E4YwK7CUom6d1HkRE5xG-15" value="no" style="text;html=1;align=center;verticalAlign=middle;resizable=0;points=[];autosize=1;strokeColor=none;fillColor=none;" vertex="1" parent="1">
          <mxGeometry x="239" y="622" width="40" height="30" as="geometry" />
        </mxCell>
        <mxCell id="E4YwK7CUom6d1HkRE5xG-37" value="" style="edgeStyle=orthogonalEdgeStyle;rounded=0;orthogonalLoop=1;jettySize=auto;html=1;" edge="1" parent="1" source="E4YwK7CUom6d1HkRE5xG-18" target="E4YwK7CUom6d1HkRE5xG-36">
          <mxGeometry relative="1" as="geometry" />
        </mxCell>
        <mxCell id="E4YwK7CUom6d1HkRE5xG-18" value="si" style="text;html=1;align=center;verticalAlign=middle;resizable=0;points=[];autosize=1;strokeColor=none;fillColor=none;" vertex="1" parent="1">
          <mxGeometry x="399" y="542" width="30" height="30" as="geometry" />
        </mxCell>
        <mxCell id="E4YwK7CUom6d1HkRE5xG-32" style="edgeStyle=orthogonalEdgeStyle;rounded=0;orthogonalLoop=1;jettySize=auto;html=1;entryX=0.5;entryY=0;entryDx=0;entryDy=0;" edge="1" parent="1" source="E4YwK7CUom6d1HkRE5xG-30" target="E4YwK7CUom6d1HkRE5xG-13">
          <mxGeometry relative="1" as="geometry" />
        </mxCell>
        <mxCell id="E4YwK7CUom6d1HkRE5xG-30" value="output probabilità % per operatore/debitore su split S0" style="rounded=0;whiteSpace=wrap;html=1;" vertex="1" parent="1">
          <mxGeometry x="189" y="400" width="140" height="50" as="geometry" />
        </mxCell>
        <mxCell id="E4YwK7CUom6d1HkRE5xG-40" style="edgeStyle=orthogonalEdgeStyle;rounded=0;orthogonalLoop=1;jettySize=auto;html=1;entryX=0.5;entryY=0;entryDx=0;entryDy=0;" edge="1" parent="1" source="E4YwK7CUom6d1HkRE5xG-33" target="E4YwK7CUom6d1HkRE5xG-39">
          <mxGeometry relative="1" as="geometry" />
        </mxCell>
        <mxCell id="E4YwK7CUom6d1HkRE5xG-33" value="output probabilità % per operatore/debitore su split S1" style="rounded=0;whiteSpace=wrap;html=1;" vertex="1" parent="1">
          <mxGeometry x="509" y="400" width="140" height="50" as="geometry" />
        </mxCell>
        <mxCell id="E4YwK7CUom6d1HkRE5xG-38" style="edgeStyle=orthogonalEdgeStyle;rounded=0;orthogonalLoop=1;jettySize=auto;html=1;entryX=0;entryY=0.5;entryDx=0;entryDy=0;" edge="1" parent="1" source="E4YwK7CUom6d1HkRE5xG-36" target="E4YwK7CUom6d1HkRE5xG-33">
          <mxGeometry relative="1" as="geometry">
            <Array as="points">
              <mxPoint x="414" y="425" />
            </Array>
          </mxGeometry>
        </mxCell>
        <mxCell id="E4YwK7CUom6d1HkRE5xG-36" value="fallback su &lt;br&gt;probabilità S1" style="text;html=1;align=center;verticalAlign=middle;resizable=0;points=[];autosize=1;strokeColor=none;fillColor=none;" vertex="1" parent="1">
          <mxGeometry x="364" y="470" width="100" height="40" as="geometry" />
        </mxCell>
        <mxCell id="E4YwK7CUom6d1HkRE5xG-42" style="edgeStyle=orthogonalEdgeStyle;rounded=0;orthogonalLoop=1;jettySize=auto;html=1;entryX=0.033;entryY=0.5;entryDx=0;entryDy=0;entryPerimeter=0;" edge="1" parent="1" source="E4YwK7CUom6d1HkRE5xG-39" target="E4YwK7CUom6d1HkRE5xG-41">
          <mxGeometry relative="1" as="geometry" />
        </mxCell>
        <mxCell id="E4YwK7CUom6d1HkRE5xG-46" value="" style="edgeStyle=orthogonalEdgeStyle;rounded=0;orthogonalLoop=1;jettySize=auto;html=1;" edge="1" parent="1" source="E4YwK7CUom6d1HkRE5xG-39" target="E4YwK7CUom6d1HkRE5xG-45">
          <mxGeometry relative="1" as="geometry" />
        </mxCell>
        <mxCell id="E4YwK7CUom6d1HkRE5xG-39" value="probabilità pari?" style="rhombus;whiteSpace=wrap;html=1;" vertex="1" parent="1">
          <mxGeometry x="539" y="517" width="80" height="80" as="geometry" />
        </mxCell>
        <mxCell id="E4YwK7CUom6d1HkRE5xG-44" value="" style="edgeStyle=orthogonalEdgeStyle;rounded=0;orthogonalLoop=1;jettySize=auto;html=1;" edge="1" parent="1" source="E4YwK7CUom6d1HkRE5xG-41" target="E4YwK7CUom6d1HkRE5xG-43">
          <mxGeometry relative="1" as="geometry" />
        </mxCell>
        <mxCell id="E4YwK7CUom6d1HkRE5xG-41" value="si" style="text;html=1;align=center;verticalAlign=middle;resizable=0;points=[];autosize=1;strokeColor=none;fillColor=none;" vertex="1" parent="1">
          <mxGeometry x="700" y="542" width="30" height="30" as="geometry" />
        </mxCell>
        <mxCell id="E4YwK7CUom6d1HkRE5xG-43" value="?" style="text;html=1;align=center;verticalAlign=middle;resizable=0;points=[];autosize=1;strokeColor=none;fillColor=none;" vertex="1" parent="1">
          <mxGeometry x="700" y="432" width="30" height="30" as="geometry" />
        </mxCell>
        <mxCell id="E4YwK7CUom6d1HkRE5xG-49" style="edgeStyle=orthogonalEdgeStyle;rounded=0;orthogonalLoop=1;jettySize=auto;html=1;entryX=0.5;entryY=0;entryDx=0;entryDy=0;exitX=-0.05;exitY=0.433;exitDx=0;exitDy=0;exitPerimeter=0;" edge="1" parent="1" source="E4YwK7CUom6d1HkRE5xG-45" target="E4YwK7CUom6d1HkRE5xG-47">
          <mxGeometry relative="1" as="geometry">
            <Array as="points">
              <mxPoint x="414" y="635" />
            </Array>
          </mxGeometry>
        </mxCell>
        <mxCell id="E4YwK7CUom6d1HkRE5xG-45" value="no" style="text;html=1;align=center;verticalAlign=middle;resizable=0;points=[];autosize=1;strokeColor=none;fillColor=none;" vertex="1" parent="1">
          <mxGeometry x="559" y="622" width="40" height="30" as="geometry" />
        </mxCell>
        <mxCell id="E4YwK7CUom6d1HkRE5xG-65" value="" style="edgeStyle=orthogonalEdgeStyle;rounded=0;orthogonalLoop=1;jettySize=auto;html=1;fontSize=15;" edge="1" parent="1" source="E4YwK7CUom6d1HkRE5xG-47" target="E4YwK7CUom6d1HkRE5xG-64">
          <mxGeometry relative="1" as="geometry" />
        </mxCell>
        <mxCell id="E4YwK7CUom6d1HkRE5xG-71" value="" style="edgeStyle=orthogonalEdgeStyle;rounded=0;orthogonalLoop=1;jettySize=auto;html=1;fontSize=15;" edge="1" parent="1" source="E4YwK7CUom6d1HkRE5xG-47" target="E4YwK7CUom6d1HkRE5xG-69">
          <mxGeometry relative="1" as="geometry" />
        </mxCell>
        <mxCell id="E4YwK7CUom6d1HkRE5xG-47" value="ci troviamo&lt;br&gt;2 operatori o&lt;br&gt;2 debitori?" style="rhombus;whiteSpace=wrap;html=1;" vertex="1" parent="1">
          <mxGeometry x="338.5" y="760" width="151" height="100" as="geometry" />
        </mxCell>
        <mxCell id="E4YwK7CUom6d1HkRE5xG-60" value="" style="edgeStyle=orthogonalEdgeStyle;rounded=0;orthogonalLoop=1;jettySize=auto;html=1;" edge="1" parent="1" source="E4YwK7CUom6d1HkRE5xG-50" target="E4YwK7CUom6d1HkRE5xG-56">
          <mxGeometry relative="1" as="geometry" />
        </mxCell>
        <mxCell id="E4YwK7CUom6d1HkRE5xG-50" value="calcolo differenza tra percentuale maggiore e percentuale minore &lt;br&gt;in entrambi gli split e comparazione" style="text;html=1;align=center;verticalAlign=middle;resizable=0;points=[];autosize=1;strokeColor=none;fillColor=none;labelBackgroundColor=default;labelBorderColor=default;" vertex="1" parent="1">
          <mxGeometry x="229" y="1010" width="370" height="40" as="geometry" />
        </mxCell>
        <mxCell id="E4YwK7CUom6d1HkRE5xG-62" style="edgeStyle=orthogonalEdgeStyle;rounded=0;orthogonalLoop=1;jettySize=auto;html=1;entryX=0.516;entryY=-0.025;entryDx=0;entryDy=0;entryPerimeter=0;" edge="1" parent="1" source="E4YwK7CUom6d1HkRE5xG-52" target="E4YwK7CUom6d1HkRE5xG-61">
          <mxGeometry relative="1" as="geometry">
            <Array as="points">
              <mxPoint x="418" y="1220" />
            </Array>
          </mxGeometry>
        </mxCell>
        <mxCell id="E4YwK7CUom6d1HkRE5xG-52" value="split S0&lt;br&gt;operatore: 90%&lt;br&gt;debitore: 10%&lt;br&gt;differenza: 80" style="html=1;verticalLabelPosition=bottom;align=center;labelBackgroundColor=#ffffff;verticalAlign=top;strokeWidth=2;strokeColor=#0080F0;shadow=0;dashed=0;shape=mxgraph.ios7.icons.document;" vertex="1" parent="1">
          <mxGeometry x="292" y="1200" width="21" height="30" as="geometry" />
        </mxCell>
        <mxCell id="E4YwK7CUom6d1HkRE5xG-63" style="edgeStyle=orthogonalEdgeStyle;rounded=0;orthogonalLoop=1;jettySize=auto;html=1;entryX=0.516;entryY=-0.05;entryDx=0;entryDy=0;entryPerimeter=0;" edge="1" parent="1" source="E4YwK7CUom6d1HkRE5xG-53" target="E4YwK7CUom6d1HkRE5xG-61">
          <mxGeometry relative="1" as="geometry">
            <Array as="points">
              <mxPoint x="418" y="1220" />
            </Array>
          </mxGeometry>
        </mxCell>
        <mxCell id="E4YwK7CUom6d1HkRE5xG-53" value="split S1&lt;br&gt;operatore: 60%&lt;br&gt;debitore: 40%&lt;br&gt;differenza: 20" style="html=1;verticalLabelPosition=bottom;align=center;labelBackgroundColor=#ffffff;verticalAlign=top;strokeWidth=2;strokeColor=#0080F0;shadow=0;dashed=0;shape=mxgraph.ios7.icons.document;" vertex="1" parent="1">
          <mxGeometry x="514" y="1200" width="21" height="30" as="geometry" />
        </mxCell>
        <mxCell id="E4YwK7CUom6d1HkRE5xG-58" style="edgeStyle=orthogonalEdgeStyle;rounded=0;orthogonalLoop=1;jettySize=auto;html=1;entryX=0.429;entryY=-0.067;entryDx=0;entryDy=0;entryPerimeter=0;" edge="1" parent="1" source="E4YwK7CUom6d1HkRE5xG-56" target="E4YwK7CUom6d1HkRE5xG-52">
          <mxGeometry relative="1" as="geometry" />
        </mxCell>
        <mxCell id="E4YwK7CUom6d1HkRE5xG-59" style="edgeStyle=orthogonalEdgeStyle;rounded=0;orthogonalLoop=1;jettySize=auto;html=1;entryX=0.333;entryY=-0.1;entryDx=0;entryDy=0;entryPerimeter=0;" edge="1" parent="1" source="E4YwK7CUom6d1HkRE5xG-56" target="E4YwK7CUom6d1HkRE5xG-53">
          <mxGeometry relative="1" as="geometry" />
        </mxCell>
        <mxCell id="E4YwK7CUom6d1HkRE5xG-56" value="esempio: entrambi split assegnati a operatore" style="text;html=1;align=center;verticalAlign=middle;resizable=0;points=[];autosize=1;strokeColor=none;fillColor=none;labelBorderColor=default;labelBackgroundColor=default;" vertex="1" parent="1">
          <mxGeometry x="279" y="1075" width="270" height="30" as="geometry" />
        </mxCell>
        <mxCell id="E4YwK7CUom6d1HkRE5xG-73" value="" style="edgeStyle=orthogonalEdgeStyle;rounded=0;orthogonalLoop=1;jettySize=auto;html=1;fontSize=15;" edge="1" parent="1" source="E4YwK7CUom6d1HkRE5xG-61" target="E4YwK7CUom6d1HkRE5xG-72">
          <mxGeometry relative="1" as="geometry" />
        </mxCell>
        <mxCell id="E4YwK7CUom6d1HkRE5xG-61" value="Operatore ha maggior peso in S0 che in S1&lt;br style=&quot;font-size: 15px;&quot;&gt;Assegnazione ruolo operatore a S0" style="text;html=1;align=center;verticalAlign=middle;resizable=0;points=[];autosize=1;strokeColor=none;fillColor=none;labelBackgroundColor=default;labelBorderColor=default;spacing=2;fontSize=15;" vertex="1" parent="1">
          <mxGeometry x="259" y="1365" width="310" height="50" as="geometry" />
        </mxCell>
        <mxCell id="E4YwK7CUom6d1HkRE5xG-66" value="" style="edgeStyle=orthogonalEdgeStyle;rounded=0;orthogonalLoop=1;jettySize=auto;html=1;fontSize=15;" edge="1" parent="1" source="E4YwK7CUom6d1HkRE5xG-64" target="E4YwK7CUom6d1HkRE5xG-50">
          <mxGeometry relative="1" as="geometry" />
        </mxCell>
        <mxCell id="E4YwK7CUom6d1HkRE5xG-64" value="si" style="text;html=1;align=center;verticalAlign=middle;resizable=0;points=[];autosize=1;strokeColor=none;fillColor=none;fontSize=15;" vertex="1" parent="1">
          <mxGeometry x="399" y="920" width="30" height="30" as="geometry" />
        </mxCell>
        <mxCell id="E4YwK7CUom6d1HkRE5xG-68" value="ruoli assegnati" style="shape=image;html=1;verticalAlign=top;verticalLabelPosition=bottom;labelBackgroundColor=#ffffff;imageAspect=0;aspect=fixed;image=https://cdn2.iconfinder.com/data/icons/onebit/PNG/onebit_34.png;labelBorderColor=default;fontSize=15;" vertex="1" parent="1">
          <mxGeometry x="619" y="786" width="48" height="48" as="geometry" />
        </mxCell>
        <mxCell id="E4YwK7CUom6d1HkRE5xG-70" value="" style="edgeStyle=orthogonalEdgeStyle;rounded=0;orthogonalLoop=1;jettySize=auto;html=1;fontSize=15;" edge="1" parent="1" source="E4YwK7CUom6d1HkRE5xG-69" target="E4YwK7CUom6d1HkRE5xG-68">
          <mxGeometry relative="1" as="geometry" />
        </mxCell>
        <mxCell id="E4YwK7CUom6d1HkRE5xG-69" value="no" style="text;html=1;align=center;verticalAlign=middle;resizable=0;points=[];autosize=1;strokeColor=none;fillColor=none;fontSize=15;" vertex="1" parent="1">
          <mxGeometry x="529" y="795" width="40" height="30" as="geometry" />
        </mxCell>
        <mxCell id="E4YwK7CUom6d1HkRE5xG-72" value="ruoli assegnati" style="shape=image;html=1;verticalAlign=top;verticalLabelPosition=bottom;labelBackgroundColor=#ffffff;imageAspect=0;aspect=fixed;image=https://cdn2.iconfinder.com/data/icons/onebit/PNG/onebit_34.png;labelBorderColor=default;fontSize=15;" vertex="1" parent="1">
          <mxGeometry x="390" y="1460" width="48" height="48" as="geometry" />
        </mxCell>
      </root>
    </mxGraphModel>
  </diagram>
</mxfile>
